<svg fill="#000000" xmlns="http://www.w3.org/2000/svg"  viewBox="0 0 50 50" width="25px" height="25px" baseProfile="basic"><path d="M42.042,13.856C43.773,15.577,44,18.311,44,25s-0.227,9.423-1.958,11.144C40.311,37.864,38.508,38,25,38	S9.689,37.864,7.958,36.144C6.227,34.423,6,31.689,6,25s0.227-9.423,1.958-11.144C9.689,12.136,11.492,12,25,12	S40.311,12.136,42.042,13.856z M41.209,35.559C42.223,34.55,43,33.8,43,25s-0.77-9.533-1.782-10.585C40.207,13.363,38.937,13,25,13	c-13.05,0-15.207,0.363-16.218,1.415C7.77,15.467,7,16.313,7,25c0,8.687,0.709,9.45,1.721,10.502C9.732,36.555,10.835,37,25,37	S40.175,36.589,41.209,35.559z"/><path d="M21.76,30.586V19.414l9.717,5.542L21.76,30.586z"/></svg>